<svg preserveAspectRatio="none" width="100%" height="100%" overflow="visible" style="display: block;" viewBox="0 0 438.967 796.578" fill="none" xmlns="http://www.w3.org/2000/svg">
<path id="Vector 5" d="M399.962 13.4104C399.962 57.151 364.59 92.6257 320.849 92.6702C245.715 92.7465 134.258 92.8284 65.1383 92.7344C36.5661 92.6956 13.4104 115.847 13.4104 144.419C13.4104 172.85 36.4581 195.898 64.889 195.898H366.964C399.324 195.898 425.557 222.131 425.557 254.491C425.557 286.851 399.324 313.083 366.964 313.083H77.8177C42.2465 313.083 13.4104 341.92 13.4104 377.491C13.4104 413.062 42.2466 441.898 77.8178 441.898H365.175C398.523 441.898 425.557 468.932 425.557 502.28C425.557 535.628 398.523 562.662 365.175 562.662H79.3832C42.9474 562.662 13.4104 592.199 13.4104 628.635C13.4104 665.07 42.9474 694.607 79.3832 694.607H311.121C360.003 694.607 399.63 734.286 399.63 783.168" stroke="var(--stroke-0, white)" stroke-width="26.8208" stroke-linecap="round"/>
</svg>
