<svg preserveAspectRatio="xMidYMid meet" width="228.267" height="323.701" overflow="visible" viewBox="0 0 228.267 323.701" fill="none" xmlns="http://www.w3.org/2000/svg">
<g id="Laag_1" clip-path="url(#clip0_0_62)">
<path id="Vector" d="M78.3834 194.348C59.8259 191.092 41.5728 179.511 29.7989 165.273C25.9503 166.369 23.5566 167.939 19.2429 166.444C12.4509 164.093 0.347023 147.287 0.0171487 140.301C-0.312726 133.315 5.34589 126.694 10.5477 122.532C6.61463 89.3359 22.4486 55.8743 51.6636 38.8277C51.7397 28.0698 57.4829 3.96214 69.3584 0.223865C69.8744 0.0577195 71.2108 -0.349337 70.9232 0.605999C70.5426 1.8687 69.5191 3.55508 69.0877 4.96732C67.0154 11.7544 66.5164 18.4417 67.8021 25.4364L72.9024 18.3337C76.5733 14.4625 81.7329 9.09603 87.7891 10.6163C88.3558 10.7575 90.6733 11.854 90.5211 12.5435C90.445 12.8924 85.9621 16.1572 85.0317 17.1541C82.1727 20.2278 79.6352 24.4063 78.7725 28.5101C110.99 21.8311 139.249 32.4727 161.241 55.4423C161.732 55.9573 163.677 58.7153 163.863 58.8233C164.565 59.2221 168.473 58.4993 169.852 58.5243C176.085 58.6738 184.265 61.4235 187.36 67.1057C191.048 73.8927 194.127 92.2933 189.247 98.7231C187.318 101.265 185.068 100.717 183.207 102.029C181.854 102.993 182.954 105.053 182.996 106.407C183.698 127.94 178.623 146.016 165.352 163.179C163.669 165.356 161.52 167.308 159.871 169.526C159.972 169.916 160.844 169.725 161.14 169.626C162.248 169.26 166.045 166.51 167.272 165.647C176.897 158.901 186.041 149.389 192.537 139.678C193.755 137.859 197.891 131.52 198.187 129.801C198.415 128.488 196.825 125.29 196.673 123.371C196.538 121.693 196.36 119.051 197.874 117.979C201.3 115.545 204.387 121.502 205.3 120.854C207.313 113.693 211.111 107.545 219.62 108.144C224.915 108.517 229.66 113.269 230.345 118.386C232.105 131.603 219.197 150.86 210.781 160.67C198.069 175.482 182.277 187.719 164.929 196.915C166.663 202.306 169.183 207.457 170.934 212.898C175.214 226.198 178.276 242.904 177.489 256.86C177.363 259.12 176.356 262.584 176.398 264.569C176.441 266.555 178.048 270.493 178.488 272.819C179.976 280.602 179.917 287.581 177.777 295.232C176.897 298.388 175.256 301.346 174.724 304.519C180.112 306.704 188.206 311.746 180.983 317.238C174.335 322.297 158.661 322.214 150.77 320.428C147.259 319.63 143.969 318.093 140.73 316.631C140.467 309.578 144.612 292.598 139.097 287.257C136.467 284.706 131.975 286.476 128.71 286.675C124.989 286.908 121.005 285.961 117.664 288.137C110.779 292.631 115.346 309.063 116.767 315.717C110.178 323.966 96.3235 324.83 86.5964 322.654C75.5583 320.178 65.9835 313.292 80.3627 305.666C78.468 299.327 76.0912 293.155 75.6345 286.476C75.11 278.792 77.1062 272.528 77.1993 265.699C77.2162 264.113 76.5141 261.604 76.4211 259.926C76.3365 258.455 76.4718 256.968 76.4211 255.506C82.0882 255.797 87.3577 255.307 92.881 254.169C96.5772 253.404 101.187 251.319 104.63 251.668C112.048 270.625 146.084 271.016 155.76 253.986C162.205 242.647 158.45 222.992 151.412 212.458C140.755 196.525 119.491 197.679 110.119 213.962C109.933 213.953 109.349 214.477 108.952 214.352C106.575 204.491 98.4212 208.254 93.9721 214.452C93.38 215.282 92.2212 217.957 91.8406 218.223C91.0878 218.738 86.1566 220.483 85.0739 220.715C82.6295 221.255 79.6183 221.455 77.2162 220.699C76.142 220.358 73.596 217.716 72.9616 219.594C71.9974 222.452 78.5272 223.889 80.5995 223.922C83.4499 223.972 91.7983 222.045 93.8875 220.126C94.9786 219.112 95.8837 216.263 97.0425 214.759C101.102 209.542 107.725 209.542 105.822 217.417C113.917 215.598 122.857 218.381 123.458 227.602C124.625 245.454 91.2316 253.82 77.4192 252.815C59.3691 251.494 51.3337 237.637 58.3457 221.397C62.9216 210.797 71.7606 202.979 80.8532 196.167C81.5214 195.669 82.9086 195.503 82.1135 194.722C80.8786 194.722 79.593 194.547 78.3919 194.34L78.3834 194.348ZM60.7563 153.186C60.9847 153.942 62.8117 157.165 63.5052 157.987C66.5841 161.617 72.9701 162.98 77.2077 160.886C78.5357 169.21 86.0889 177.376 93.9467 180.417C113.468 187.968 137.126 178.473 147.006 160.762C152.597 150.735 151.049 140.816 146.151 130.881C152.774 128.48 155.439 119.525 151.243 113.95C163.829 100.293 152.351 75.7369 137.93 67.9613C123.272 60.0611 107.463 66.5159 95.6045 76.0443C92.6949 78.3786 90.1912 81.336 87.1801 83.5375C81.6568 87.5748 72.3526 86.6527 65.3745 87.8988C44.1273 91.6952 29.7989 106.507 35.0853 128.563C37.9696 140.592 46.9016 153.211 60.7478 153.186H60.7563Z" fill="var(--fill-0, #2BB39B)"/>
<path id="Vector_2" d="M151.252 113.934C150.702 113.195 147.53 110.553 146.633 110.204C143.487 108.975 140.332 109.216 137.152 110.088C137.498 109.025 137.972 106.391 137.972 105.278C137.972 101.648 131.857 88.2814 129.108 85.8557C119.127 77.0583 104.198 85.1745 105.856 98.3083C106.186 100.958 111.007 111.7 112.699 113.901C116.818 119.243 124.879 120.929 130.884 117.781C130.63 121.901 131.146 125.872 134.403 128.754C137.659 131.637 142.235 132.285 146.168 130.864C151.057 140.808 152.605 150.727 147.023 160.746C137.143 178.465 113.485 187.952 93.9635 180.401C86.1057 177.36 78.544 169.194 77.2245 160.87C77.6136 160.679 80.3879 158.37 80.7432 157.979C86.0381 152.131 83.4498 145.419 78.0111 140.866C78.3072 140.758 82.3503 137.984 82.7224 137.61C90.1657 130.183 85.2768 119.965 81.0815 112.256C73.2829 97.9179 53.0084 104.522 54.5055 119.508C54.7762 122.258 59.0138 131.662 60.5616 134.329C62.1095 136.995 64.5286 139.263 67.4213 140.476C64.1733 142.437 61.1791 145.618 60.7646 149.523C60.6885 150.22 60.6039 152.654 60.7646 153.178C46.9184 153.203 37.9864 140.584 35.1021 128.555C29.8157 106.499 44.1441 91.6874 65.3913 87.891C72.3694 86.6449 81.6736 87.5587 87.1969 83.5297C90.208 81.3282 92.7202 78.3708 95.6214 76.0365C107.48 66.5081 123.28 60.0533 137.947 67.9535C152.368 75.7208 163.846 100.277 151.26 113.943L151.252 113.934ZM111.971 126.727C107.784 127.492 106.524 131.787 109.552 134.711C111.371 133.897 117.131 129.901 116.2 127.807C115.558 126.362 113.308 126.487 111.971 126.727ZM105.382 136.613C106.034 135.857 104.57 132.991 103.606 132.451C98.4633 129.585 91.2484 138.441 100.079 137.743C100.696 137.693 105.205 136.812 105.382 136.605V136.613ZM132.347 135.575C130.131 135.949 127.924 138.59 126.147 139.878C119.178 144.92 112.699 148.966 104.333 151.541C101.212 152.505 92.7963 153.618 90.9524 154.947C84.6678 159.483 94.674 168.579 98.8947 170.955C117.85 181.63 142.041 166.245 139.85 144.962C139.435 140.933 137.608 134.686 132.347 135.575Z" fill="var(--fill-0, #C6E2CD)"/>
<path id="Vector_3" d="M104.629 251.685C105.484 251.769 106.05 250.439 106.905 249.891C113.959 245.355 121.123 243.86 124.811 235.137C129.59 223.839 122.189 214.735 110.119 213.979C119.491 197.696 140.763 196.542 151.412 212.475C158.458 223.009 162.205 242.664 155.76 254.003C146.084 271.033 112.047 270.643 104.629 251.685Z" fill="var(--fill-0, #C6E2CD)"/>
<path id="Vector_4" d="M77.9939 140.875C83.4326 145.427 86.0209 152.139 80.726 157.988C80.3707 158.378 77.5964 160.688 77.2073 160.879C72.9697 162.972 66.5837 161.61 63.5049 157.979C62.8113 157.157 60.9758 153.942 60.7559 153.178C60.6037 152.663 60.6882 150.22 60.7559 149.523C61.1704 145.627 64.1646 142.437 67.4126 140.476C70.0939 141.598 75.2196 141.855 77.9939 140.858V140.875Z" fill="var(--fill-0, #F5B5CC)"/>
<path id="Vector_5" d="M151.251 113.934C155.447 119.508 152.782 128.464 146.16 130.864C142.226 132.293 137.54 131.537 134.394 128.754C131.247 125.972 130.63 121.901 130.875 117.781C133.455 116.426 136.263 112.813 137.143 110.088C140.332 109.216 143.478 108.975 146.625 110.204C147.53 110.553 150.693 113.203 151.243 113.934H151.251Z" fill="var(--fill-0, #F5B5CC)"/>
<path id="Vector_6" d="M132.347 135.575C137.6 134.677 139.435 140.933 139.85 144.962C142.032 166.237 117.85 181.622 98.8945 170.955C94.6738 168.579 84.6761 159.483 90.9521 154.947C92.796 153.618 101.212 152.505 104.333 151.541C112.707 148.966 119.186 144.92 126.147 139.878C127.923 138.59 130.131 135.957 132.347 135.575ZM127.619 153.327C120.049 153.493 109.408 159.001 105.746 165.622C105.467 166.12 104.409 167.715 104.798 168.206C105.221 168.729 109.095 169.593 109.966 169.676C117.063 170.357 125.496 166.76 130.089 161.443C131.112 160.256 134.419 155.711 133.455 154.316C132.973 153.626 128.642 153.302 127.619 153.327Z" fill="var(--fill-0, #302D2D)"/>
<path id="Vector_7" d="M77.994 140.875C75.2196 141.872 70.1024 141.614 67.4126 140.493C64.5114 139.28 62.1008 137.012 60.5529 134.345C59.0051 131.679 54.7674 122.275 54.4968 119.525C53.0081 104.539 73.2742 97.9344 81.0728 112.273C85.2597 119.974 90.157 130.2 82.7137 137.627C82.3415 138 78.29 140.775 78.0024 140.883L77.994 140.875ZM66.2369 111.243C61.5341 112.223 58.6075 116.809 59.9524 121.461C60.5106 123.396 63.4118 129.859 64.4607 131.654C69.3749 140.119 83.1874 134.187 80.7598 125.265C80.5568 124.526 77.8248 117.789 77.4103 117.789C74.7544 121.56 68.0724 122.848 65.518 118.304C64.0631 115.729 65.1796 113.66 66.2454 111.243H66.2369Z" fill="var(--fill-0, white)"/>
<path id="Vector_8" d="M137.151 110.088C136.272 112.813 133.464 116.435 130.884 117.781C124.878 120.929 116.818 119.243 112.698 113.901C110.998 111.7 106.186 100.958 105.856 98.3083C104.198 85.1828 119.127 77.0583 129.108 85.8557C131.857 88.2731 137.963 101.64 137.972 105.278C137.972 106.391 137.498 109.016 137.151 110.088ZM117.562 89.3198C112.419 90.109 109.966 94.7694 111.167 99.6375C111.548 101.183 114.509 107.862 115.38 109.349C120.345 117.83 134.529 112.489 131.679 102.57C131.095 100.526 129.463 98.3499 128.913 96.2398C128.541 95.9657 126.342 97.9262 125.657 98.2252C119.017 101.183 113.003 95.4008 117.562 89.3115V89.3198Z" fill="var(--fill-0, white)"/>
<path id="Vector_9" d="M111.971 126.727C113.316 126.478 115.558 126.362 116.2 127.807C117.131 129.901 111.379 133.897 109.552 134.711C106.516 131.787 107.784 127.492 111.971 126.727Z" fill="var(--fill-0, #302D2D)"/>
<path id="Vector_10" d="M105.382 136.613C105.204 136.812 100.696 137.701 100.079 137.751C91.2483 138.449 98.4717 129.593 103.606 132.459C104.57 132.991 106.033 135.865 105.382 136.621V136.613Z" fill="var(--fill-0, #302D2D)"/>
<path id="Vector_11" d="M127.619 153.327C128.642 153.302 132.973 153.626 133.455 154.316C134.428 155.711 131.112 160.256 130.089 161.443C125.504 166.76 117.071 170.357 109.966 169.676C109.087 169.593 105.213 168.729 104.798 168.206C104.409 167.715 105.467 166.12 105.746 165.622C109.408 159.001 120.049 153.493 127.619 153.327Z" fill="var(--fill-0, #F5B5CC)"/>
<path id="Vector_12" d="M66.237 111.243C65.1713 113.66 64.0548 115.737 65.5096 118.304C68.0725 122.848 74.7461 121.56 77.402 117.789C77.8164 117.789 80.5485 124.526 80.7515 125.265C83.1875 134.187 69.3666 140.119 64.4523 131.654C63.4119 129.851 60.5107 123.396 59.944 121.461C58.5992 116.809 61.5257 112.223 66.2286 111.243H66.237Z" fill="var(--fill-0, #302D2D)"/>
<path id="Vector_13" d="M117.562 89.3199C113.011 95.4091 119.017 101.191 125.657 98.2336C126.35 97.9262 128.541 95.974 128.913 96.2481C129.471 98.3499 131.095 100.535 131.679 102.578C134.529 112.489 120.336 117.83 115.38 109.357C114.508 107.87 111.548 101.191 111.167 99.6458C109.966 94.7777 112.419 90.1257 117.562 89.3282V89.3199Z" fill="var(--fill-0, #302D2D)"/>
</g>
<defs>
<clipPath id="clip0_0_62">
<rect width="228.267" height="323.701" fill="white"/>
</clipPath>
</defs>
</svg>
